<svg xmlns="http://www.w3.org/2000/svg" xmlns:xlink="http://www.w3.org/1999/xlink" width="1920" zoomAndPan="magnify" viewBox="0 0 1440 809.999993" height="1080" preserveAspectRatio="xMidYMid meet" version="1.0"><rect x="-144" width="1728" fill="#ffffff" y="-80.999999" height="971.999992" fill-opacity="1"/><rect x="-144" width="1728" fill="#ffffff" y="-80.999999" height="971.999992" fill-opacity="1"/><rect x="-144" width="1728" fill="#ffffff" y="-80.999999" height="971.999992" fill-opacity="1"/><path fill="#ffffff" d="M 990.320312 1057.574219 L 838.160156 1057.574219 C 816.183594 974.296875 569.992188 1013.578125 569.992188 1013.578125 L 339.089844 1057.574219 L 245.28125 1057.574219 L 173.527344 1009.917969 L 124.410156 1057.574219 L 60.9375 1057.574219 L 35.269531 1040.222656 L -12.492188 1057.574219 L -51.035156 1057.574219 L -51.035156 1024.394531 C -32.597656 1002.75 -12.492188 935.542969 -12.492188 935.542969 L -51.035156 925.46875 L -51.035156 785.679688 C 10.871094 676.152344 -4.539062 600.359375 -51.035156 581.941406 L -51.035156 513.921875 C 6.171875 444.757812 1.230469 315.980469 -51.035156 298.992188 L -51.035156 245.972656 C 4.0625 127.273438 -48.746094 47.851562 -51.035156 48.847656 L -51.035156 -21.460938 C -9.554688 -81.347656 252.089844 -92.507812 252.089844 -92.507812 C 252.089844 -92.507812 613.992188 -27.5625 602.890625 -99.164062 L 764.550781 -99.164062 C 764.550781 -99.164062 873.753906 -23.375 1118.226562 -99.164062 L 1356.089844 -99.164062 L 1491.332031 51.84375 L 1491.332031 93.941406 C 1372.539062 156.265625 1491.332031 253.339844 1491.332031 253.339844 L 1491.332031 309.59375 C 1414.441406 411.097656 1491.332031 528.878906 1491.332031 528.878906 L 1491.332031 600.632812 C 1428.058594 674.75 1428.914062 823.457031 1491.332031 865.34375 L 1491.332031 937.820312 C 1396.636719 1043.21875 1243.875 1057.574219 990.320312 1057.574219 Z M 990.320312 1057.574219 " fill-opacity="1" fill-rule="nonzero"/><path fill="#ffc744" d="M -51.035156 299.007812 C -51.035156 299.007812 365.117188 18.980469 513.074219 197.503906 C 648.46875 360.863281 606.160156 780.648438 731.535156 629.597656 C 925.6875 395.6875 1194.683594 299.007812 1491.332031 309.609375 L 1491.332031 528.894531 C 1491.332031 528.894531 1171.308594 551.230469 968.296875 645.425781 C 765.289062 739.621094 640.320312 996.453125 565.371094 856.921875 C 488.914062 714.589844 546.917969 391.289062 377.800781 333.722656 C 208.683594 276.15625 -31.335938 486.628906 -51.035156 513.9375 Z M -51.035156 299.007812 " fill-opacity="1" fill-rule="nonzero"/><path fill="#ffc744" d="M 1491.332031 51.84375 C 1121.332031 -11.308594 949.078125 182.835938 832.121094 245.988281 C 715.164062 309.144531 792.355469 171.132812 607.558594 10.230469 C 422.761719 -150.675781 -51.035156 -21.460938 -51.035156 -21.460938 L -51.035156 -99.164062 C -51.035156 -99.164062 441.226562 -99.164062 602.890625 -99.164062 C 764.550781 -99.164062 808.730469 121.203125 820.433594 137.980469 C 832.121094 154.761719 1016.917969 -72.414062 1356.089844 -99.164062 L 1491.332031 -99.164062 Z M 1491.332031 51.84375 " fill-opacity="1" fill-rule="nonzero"/><path fill="#bfe1f1" d="M 245.28125 1057.574219 L 124.410156 1057.574219 C 109.828125 963.210938 88.46875 880.507812 -51.035156 1024.394531 L -51.035156 925.46875 C 84.148438 739.273438 169.488281 723.898438 192.535156 846.257812 C 209.496094 936.328125 217.839844 1005.6875 245.28125 1057.574219 Z M 1491.332031 937.832031 C 1301.128906 912.652344 1098.164062 1000.492188 990.320312 1057.574219 L 1491.332031 1057.574219 Z M -51.035156 245.988281 C -51.035156 233.519531 236.789062 53.035156 425.125 68.214844 C 570.144531 79.902344 642.667969 410.132812 680.082031 533.683594 C 712.769531 641.570312 745.574219 503.273438 909.316406 395.671875 C 1073.054688 288.070312 1352.898438 213.921875 1491.332031 253.339844 L 1491.332031 93.941406 C 1145.566406 37.371094 844.878906 309.609375 768.964844 395.6875 C 704.980469 468.253906 745.574219 35.410156 471.894531 -9.335938 C 183.8125 -56.433594 -51.035156 48.847656 -51.035156 48.847656 Z M -51.035156 245.988281 " fill-opacity="1" fill-rule="nonzero"/><path fill="#bfe1f1" d="M 838.160156 1057.574219 L 339.089844 1057.574219 C 209.390625 864.300781 294.972656 630.425781 186.828125 631.269531 C 109.332031 631.855469 12.316406 718.714844 -51.035156 785.695312 L -51.035156 581.941406 C 109.785156 409.542969 301.917969 303.300781 387.484375 429.320312 C 513.707031 615.242188 388.269531 947.203125 610.722656 947.203125 C 781.964844 947.203125 948.011719 612.019531 1491.332031 600.632812 L 1491.332031 865.34375 C 1193.597656 850.535156 993.089844 960.394531 838.160156 1057.574219 Z M -12.492188 1057.574219 L 60.9375 1057.574219 C 54.234375 998.683594 17.195312 1025.871094 -12.492188 1057.574219 Z M 764.550781 -99.164062 C 795.128906 -72.144531 798.699219 51.03125 846.898438 49.238281 C 895.097656 47.445312 1078.960938 -79.78125 1118.226562 -99.164062 Z M 764.550781 -99.164062 " fill-opacity="1" fill-rule="nonzero"/></svg>