<svg xmlns="http://www.w3.org/2000/svg" xmlns:xlink="http://www.w3.org/1999/xlink" width="1080" zoomAndPan="magnify" viewBox="0 0 810 809.999993" height="1080" preserveAspectRatio="xMidYMid meet" version="1.0"><defs><filter x="0%" y="0%" width="100%" height="100%" id="216d15ce9f"><feColorMatrix values="0 0 0 0 1 0 0 0 0 1 0 0 0 0 1 0 0 0 1 0" color-interpolation-filters="sRGB"/></filter><mask id="00c7226bc6"><g filter="url(#216d15ce9f)"><rect x="-81" width="972" fill="#000000" y="-80.999999" height="971.999992" fill-opacity="0.24"/></g></mask><clipPath id="976c4724e6"><path d="M 391 0.0390625 L 435 0.0390625 L 435 43 L 391 43 Z M 391 0.0390625 " clip-rule="nonzero"/></clipPath><clipPath id="6255d2f5c7"><rect x="0" width="728" y="0" height="771"/></clipPath></defs><g mask="url(#00c7226bc6)"><g transform="matrix(1, 0, 0, 1, 40, 23)"><g clip-path="url(#6255d2f5c7)"><path fill="#0097b2" d="M 32.46875 196.296875 C 24.390625 188.988281 15.882812 174.808594 20.007812 163.976562 C 21.210938 161.226562 26.109375 157.875 28.945312 157.1875 C 67.625 148.679688 73.46875 224.402344 32.46875 196.296875 " fill-opacity="1" fill-rule="nonzero"/><path fill="#0097b2" d="M 632.488281 378.082031 C 603.78125 353.84375 628.878906 304.421875 657.15625 343.957031 C 665.238281 349.71875 667.300781 360.804688 667.128906 370 C 666.957031 370.257812 667.128906 370.429688 667.128906 370.429688 C 669.449219 392.777344 644.265625 389.941406 632.488281 378.082031 " fill-opacity="1" fill-rule="nonzero"/><path fill="#0097b2" d="M 317.738281 297.628906 C 297.96875 288.175781 300.894531 250.101562 325.476562 257.75 C 336.992188 260.84375 339.742188 285.941406 335.703125 294.277344 C 330.976562 298.921875 324.617188 300.726562 317.738281 297.628906 " fill-opacity="1" fill-rule="nonzero"/><path fill="#0097b2" d="M 130.28125 453.375 C 122.632812 447.183594 119.539062 436.355469 125.898438 429.136719 C 133.890625 401.375 166.464844 439.535156 150.566406 454.664062 C 144.980469 458.789062 136.296875 457.929688 130.28125 453.375 " fill-opacity="1" fill-rule="nonzero"/><path fill="#0097b2" d="M 199.472656 756.863281 C 181.25 739.675781 197.582031 710.363281 219.496094 728.671875 C 242.015625 744.488281 221.390625 778.867188 199.472656 756.863281 " fill-opacity="1" fill-rule="nonzero"/><path fill="#0097b2" d="M 315.761719 468.5 C 286.109375 452.511719 323.667969 411.515625 336.046875 445.636719 C 339.914062 450.878906 340 457.15625 338.796875 462.65625 C 334.929688 470.734375 323.839844 473.398438 315.761719 468.5 " fill-opacity="1" fill-rule="nonzero"/><path fill="#0097b2" d="M 682.597656 54.5625 C 671.253906 44.679688 664.808594 25.511719 674.003906 13.5625 C 683.972656 1.789062 708.726562 9.953125 707.953125 27.488281 C 712.425781 32.902344 714.058594 42.1875 712.339844 48.289062 C 709.328125 61.4375 692.65625 62.8125 682.597656 54.5625 " fill-opacity="1" fill-rule="nonzero"/><g clip-path="url(#976c4724e6)"><path fill="#0097b2" d="M 395.007812 27.488281 C 375.496094 -3.109375 441.25 -14.972656 433.859375 30.066406 C 426.464844 49.148438 405.324219 43.476562 395.007812 27.488281 " fill-opacity="1" fill-rule="nonzero"/></g></g></g></g></svg>